<svg version="1.2" xmlns="http://www.w3.org/2000/svg" viewBox="0 0 1010 746" width="1010" height="746">
	<style>
		.s0 { fill: #0c0c0c } 
	</style>
	<g id="Background">
		<path id="Path 1" fill-rule="evenodd" class="s0" d="m735.16 0.5c0.39 2.2 1.9 20.2 3.34 40 1.45 19.8 2.94 39.33 4 50.79l18.75-15.15c10.31-8.33 18.75-14.91 18.75-14.64 0 0.27-3.3 4.44-7.34 9.25-4.03 4.81-10.75 13.02-14.92 18.25-4.17 5.23-7.5 9.61-7.41 9.74 0.09 0.12 17.72 1.61 39.17 3.3 21.45 1.69 42.83 3.41 47.5 3.83 5.36 0.48 7.58 0.98 6 1.36-1.37 0.33-19.83 1.81-41 3.3-21.17 1.48-41.56 2.98-52.1 3.97l11.17 14c6.15 7.7 13.14 16.36 15.55 19.25 2.41 2.89 4.16 5.25 3.88 5.25-0.27 0-4.93-3.71-10.34-8.25-5.41-4.54-13.51-11.29-18-15-4.49-3.71-8.61-6.75-9.16-6.75-0.55 0-1.01 1.24-1.02 2.75 0 1.51-0.46 8.15-1.02 14.75-0.55 6.6-2.11 26.4-3.47 44-1.36 17.6-2.59 32.08-2.73 32.18-0.14 0.1-1.06-10.48-2.04-23.5-0.99-13.02-2.48-32.68-3.31-43.68-0.84-11-1.73-21.46-1.97-23.25-0.37-2.72-0.72-3.1-2.19-2.33-0.96 0.5-9.29 7.25-18.5 15-9.21 7.74-16.97 14.08-17.25 14.08-0.27 0 6.03-8.1 14-18 7.98-9.9 14.73-18.68 15-19.5 0.38-1.13-0.31-1.51-2.75-1.52-1.79-0.01-22.83-1.58-46.75-3.49-23.92-1.91-43.58-3.59-43.68-3.73-0.1-0.14 3.27-0.58 7.5-0.97 4.22-0.4 25.23-2.1 46.68-3.8 21.45-1.69 39.23-3.27 39.5-3.5 0.28-0.24-5.83-8.21-13.56-17.71-7.73-9.51-14.46-17.96-14.95-18.78-0.49-0.82 1.52 0.52 4.48 3 2.96 2.48 11.27 9.32 18.46 15.2 12.01 9.84 13.12 10.53 13.72 8.5 0.36-1.21 2.15-22.45 3.97-47.2 2.24-30.4 3.55-43.7 4.04-41zm-327.16 61.64c3.03-0.08 11.58 0.35 19 0.94 7.43 0.6 16.71 1.62 20.64 2.26 3.92 0.64 7.41 1.5 7.75 1.91 0.33 0.41-1.44 5.59-3.95 11.5-2.5 5.91-7.72 16.82-11.58 24.25-3.87 7.43-11.19 19.8-16.27 27.5-5.07 7.7-13.25 19.01-18.16 25.14-4.91 6.13-14.55 17.31-21.43 24.84-6.87 7.53-18.12 18.78-25 25-6.87 6.22-16.55 14.65-21.5 18.74-4.95 4.09-18 14.18-29 22.42-11 8.25-27.87 20.41-37.5 27.02-9.62 6.62-27.62 18.93-40 27.35-12.37 8.43-28.8 20.07-36.5 25.88-7.7 5.81-18.5 14.43-24 19.16-5.5 4.73-14.72 13.56-20.5 19.63-5.77 6.07-13.54 15.26-17.25 20.43-3.71 5.16-9.16 14.12-12.11 19.89-2.95 5.77-6.21 12.75-9.08 20.5l-0.86-3.5c-0.47-1.92-0.91-15.87-0.98-31-0.09-21.29 0.29-30.44 1.66-40.5 0.98-7.15 2.67-17.73 3.76-23.5 1.1-5.77 3.12-15 4.51-20.5 1.38-5.5 3.88-14.27 5.54-19.5 1.66-5.23 5.05-14.67 7.53-21 2.48-6.32 7.89-18.25 12.02-26.5 4.14-8.25 10.24-19.5 13.57-25 3.32-5.5 8.75-13.82 12.06-18.5 3.3-4.68 9.24-12.55 13.2-17.5 3.96-4.95 11.18-13.29 16.06-18.52 4.88-5.24 13.15-13.53 18.37-18.42 5.23-4.89 13.78-12.32 19-16.5 5.23-4.18 14.68-11.05 21-15.25 6.33-4.2 16.45-10.37 22.5-13.7 6.05-3.34 15.73-8.16 21.5-10.71 5.78-2.55 14.78-6.2 20-8.11 5.23-1.91 16.25-5.18 24.5-7.29 8.25-2.1 19.95-4.55 26-5.46 6.05-0.9 15.28-2.01 20.5-2.45 5.23-0.45 11.98-0.88 15-0.95zm77.11 15.18c2.92 1.23 5.5 3.05 5.92 4.18 0.4 1.1 1.29 7.85 1.96 15 0.7 7.41 0.94 16.44 0.54 21-0.38 4.4-1.36 11.6-2.19 16-0.83 4.4-3.03 12.73-4.89 18.5-1.87 5.77-6.3 16.35-9.85 23.5-3.55 7.15-9.56 17.73-13.35 23.5-3.79 5.77-10.63 15.23-15.2 21-4.57 5.77-16.24 18.4-25.93 28.05-9.69 9.65-22.79 21.97-29.12 27.36-6.32 5.39-17.8 14.84-25.5 21-7.7 6.16-20.3 15.94-28 21.75-7.7 5.8-21.65 16.11-31 22.92-9.35 6.81-23.75 17.52-32 23.8-8.25 6.29-18.82 14.61-23.5 18.49-4.67 3.88-13.84 12.25-20.36 18.59-6.52 6.35-15.27 15.59-19.43 20.54-4.17 4.95-9.92 12.6-12.77 17-2.86 4.4-7.23 12.05-9.7 17-2.48 4.95-6.11 13.73-8.06 19.5-1.96 5.77-4.3 14.1-5.2 18.5-0.91 4.4-1.89 14.08-2.19 21.5-0.42 10.16-0.12 16.22 1.18 24.5 0.96 6.05 2.99 14.83 4.51 19.5 1.53 4.67 5.14 13.23 8.03 19 2.88 5.77 8.32 15 12.07 20.5 3.76 5.5 10.34 13.85 14.63 18.56 4.28 4.71 12.52 12.98 18.29 18.39 5.78 5.4 10.95 10.28 11.5 10.84 0.55 0.57-0.57 0.12-2.5-1-1.92-1.11-6.65-3.74-10.5-5.84-3.85-2.1-12.17-7.16-18.5-11.26-6.32-4.1-15.77-10.65-21-14.57-5.22-3.91-16.08-13.64-24.12-21.62-8.04-7.97-17.1-17.87-20.14-22-3.04-4.12-7.84-11.55-10.65-16.5-2.82-4.95-6.44-12.15-8.05-16-1.61-3.85-4.17-11.5-5.7-17-2.58-9.25-2.79-11.38-2.81-28.5-0.03-16.04 0.27-19.63 2.22-27 1.23-4.67 3.63-12.1 5.32-16.5 1.69-4.4 5.36-12.05 8.14-17 2.78-4.95 8.23-13.27 12.11-18.5 3.88-5.23 13.15-15.58 20.61-23.01 7.47-7.43 18.97-17.69 25.57-22.79 6.6-5.1 20.55-15.04 31-22.08 10.45-7.04 29.58-19.49 42.5-27.68 12.93-8.18 32.5-20.92 43.5-28.3 11-7.39 25.4-17.49 32-22.44 6.6-4.95 15.6-11.94 20-15.54 4.4-3.6 13.85-11.82 21-18.27 7.15-6.44 17.73-16.97 23.5-23.38 5.78-6.42 15-17.67 20.5-25 5.5-7.34 12.89-17.99 16.42-23.67 3.53-5.69 9.45-16.41 13.16-23.84 3.72-7.43 8.76-19.35 11.22-26.5 2.45-7.15 5.43-17.5 6.62-23 1.18-5.5 2.35-10.75 2.58-11.68 0.4-1.52 0.9-1.48 5.61 0.5zm45.04 24.68c0.51 0.82 3.22 6 6.02 11.5 2.79 5.5 6.8 15.18 8.9 21.5 2.1 6.32 4.83 16.23 6.06 22 1.83 8.6 2.24 13.75 2.27 28.5 0.02 13.53-0.52 21.72-2.18 33-1.22 8.25-2.44 16.46-2.72 18.25-0.47 3.04-0.25 3.32 3.25 4.39 2.06 0.62 6.45 0.92 9.75 0.66 3.49-0.28 8.41-1.59 11.75-3.14 4.83-2.24 5.55-2.37 4.5-0.83-0.69 1.01-2.82 3.2-4.75 4.87-1.92 1.68-5.75 4.45-8.5 6.16-2.75 1.71-7.85 3.9-17.65 6.64l0.63 4.5c0.35 2.48 1.12 6.07 1.71 8 0.6 1.93 3.1 7.55 5.57 12.5 2.46 4.95 6.09 11.25 8.07 14 1.98 2.75 8 9.61 13.38 15.25 8.21 8.6 9.8 10.77 9.82 13.5 0.02 1.92-0.9 4.44-2.25 6.15-1.25 1.59-4.3 3.91-6.78 5.14-2.47 1.24-8.55 3.43-13.5 4.86-4.95 1.43-10.12 3.44-11.5 4.45-1.86 1.38-2.56 2.91-2.75 6-0.16 2.69 0.43 5.29 1.68 7.4 1.07 1.79 3.55 4.83 5.52 6.75 2.75 2.69 3.59 4.31 3.6 7 0.01 2.37-0.8 4.39-2.52 6.25-1.39 1.51-4.44 3.64-6.78 4.73-2.34 1.09-5.26 1.99-6.5 2-1.24 0.01-2.47 0.47-2.75 1.02-0.27 0.55 0.85 1.45 2.5 2 1.65 0.55 4.14 2.24 5.53 3.75 1.66 1.8 2.53 3.88 2.5 6-0.01 1.79-0.48 4.15-1.03 5.25-0.55 1.1-3.14 2.96-5.75 4.14-2.61 1.17-5.87 2.9-7.25 3.85-1.37 0.94-3.36 3.47-4.42 5.61-1.41 2.88-2.1 7.17-2.6 16.4-0.5 9.09-1.23 13.73-2.67 17-1.09 2.48-3.63 5.96-5.64 7.75-2.02 1.79-5.58 3.75-7.92 4.37-2.34 0.61-7.17 0.87-10.75 0.57-3.57-0.29-10.77-1.91-16-3.58-5.22-1.68-17.6-7.04-27.5-11.93-9.9-4.88-21.15-10.03-25-11.43-3.85-1.41-10.82-3.28-15.5-4.16-4.67-0.89-10.97-1.6-14-1.59-3.02 0.02-8.65 0.72-12.5 1.55-3.85 0.83-9.66 2.96-12.9 4.73-3.25 1.77-8.14 5.7-10.88 8.72-2.74 3.02-5.99 7.52-7.23 10-1.25 2.48-3.25 7.65-4.47 11.5-1.4 4.44-2.4 10.83-2.75 17.5-0.4 7.76-0.09 12.72 1.17 19 0.95 4.67 3.02 11.65 4.6 15.5 1.59 3.85 4.77 9.92 7.07 13.5 2.3 3.58 6.93 9.38 10.29 12.9 3.35 3.52 9.48 8.92 13.6 12.01 4.13 3.09 11.55 7.7 16.5 10.26 4.95 2.55 13.73 6.21 19.5 8.13 5.78 1.92 13.2 4.01 16.5 4.65 3.3 0.63 5.78 1.36 5.5 1.62-0.27 0.26-5.45-0.03-11.5-0.64-6.05-0.6-16.85-2.23-24-3.61-7.15-1.38-17.05-3.84-22-5.46-4.95-1.62-14.17-5.44-20.5-8.49-6.32-3.05-14.87-7.86-19-10.7-4.12-2.85-10.9-8.54-15.05-12.67-4.15-4.12-9.53-10.42-11.94-14-2.42-3.58-6.08-10.1-8.13-14.5-2.06-4.4-4.78-11.83-6.05-16.5-1.93-7.14-2.28-10.74-2.18-22.5 0.1-11.67 0.56-15.66 2.76-24 1.45-5.5 4.79-14.5 7.43-20 2.63-5.5 7.52-14.05 10.86-19 3.33-4.95 9.16-12.49 12.93-16.75 3.78-4.25 10.25-10.72 14.37-14.37 4.13-3.64 9.88-8.48 12.8-10.75 2.91-2.27 5.27-4.24 5.25-4.38-0.03-0.14-1.96 0.71-4.3 1.89-2.34 1.18-8.75 4.85-14.25 8.15-5.5 3.31-14.27 9.19-19.5 13.06-5.22 3.87-13.5 10.89-18.38 15.59-4.89 4.71-11.45 11.94-14.58 16.06-3.14 4.13-7.42 10.2-9.52 13.5-2.11 3.3-5.74 9.83-8.08 14.5-2.34 4.67-5.65 12.89-7.35 18.25-1.7 5.36-3.82 13.91-4.7 19-1.2 6.9-1.49 13.05-1.11 24.25 0.41 12.44 1.02 16.96 3.53 26.5 1.67 6.33 4.41 15.1 6.09 19.5 1.68 4.4 2.95 8.13 2.83 8.29-0.13 0.16-2.54-2.77-5.36-6.5-2.82-3.74-6.92-9.71-9.1-13.29-2.18-3.58-5.44-9.42-7.24-13-1.81-3.58-4.59-10.55-6.2-15.5-1.6-4.95-3.57-13.05-4.37-18-0.8-4.95-1.46-12.15-1.47-16 0-3.85 0.69-11.05 1.55-16 0.86-4.95 2.89-12.94 4.51-17.75 1.62-4.81 4.81-12.46 7.08-17 2.26-4.54 6.15-11.4 8.64-15.25 2.48-3.85 7.1-10.15 10.27-14 3.17-3.85 10.86-11.97 17.11-18.04 6.24-6.08 14.28-13.55 17.85-16.6 3.58-3.06 12.13-9.82 19-15.04 6.88-5.22 21.05-15.56 31.5-22.98 10.45-7.43 25.08-17.93 32.5-23.34 7.43-5.41 18.89-14.14 25.47-19.41 6.58-5.28 16.93-14.13 23-19.67 6.07-5.55 14.18-13.45 18.03-17.57 3.85-4.13 10.44-11.74 14.66-16.92 4.21-5.19 10.64-13.93 14.29-19.43 3.65-5.5 9.3-15.4 12.55-22 3.26-6.6 7.54-16.73 9.52-22.5 1.97-5.77 4.5-15.68 5.62-22 1.12-6.39 2.25-18.39 2.54-27 0.35-10.26 0.84-14.99 1.47-14zm347 46c0.95 12.93 2.1 27 3.35 39.04l10.5-8.61c5.78-4.74 11.17-9.14 11.98-9.77 0.81-0.64-0.67 1.54-3.29 4.84-2.63 3.3-7.01 8.81-14.69 18.5l6.25 0.47c3.44 0.26 17.28 1.26 30.75 2.22 18.02 1.29 23.31 1.93 20 2.45-2.47 0.38-14.85 1.43-27.5 2.31-12.65 0.89-24.46 1.83-29.5 2.55l8.17 10.25c4.49 5.64 8.87 11.15 9.74 12.25 1.46 1.86 1.4 1.85-0.92-0.1-1.37-1.16-6.77-5.62-21.49-17.76l-0.67 5.43c-0.36 2.99-1.49 16.53-2.5 30.11-1.01 13.57-1.95 24.59-2.09 24.5-0.14-0.1-0.92-8.5-1.73-18.68-0.8-10.17-1.76-23-2.12-28.5-0.36-5.5-0.93-10.52-1.27-11.16-0.39-0.72-4.88 2.4-11.87 8.25-6.19 5.18-11.27 9.3-11.29 9.16-0.02-0.14 4.06-5.42 9.08-11.75 7.69-9.7 8.82-11.59 7.28-12.09-1-0.33-13.29-1.39-27.32-2.37-14.02-0.97-26.85-2.12-28.5-2.56-2.92-0.78-2.89-0.8 1-0.91 2.2-0.07 15.7-1 30-2.09 14.3-1.09 26.11-2.2 26.25-2.48 0.14-0.27-3.42-5.11-7.91-10.75-4.49-5.64-8.65-10.92-9.25-11.74-0.6-0.82 1.38 0.51 4.41 2.95 3.03 2.44 8.31 6.83 11.75 9.74 3.84 3.26 6.4 4.82 6.65 4.05 0.22-0.69 1.14-12.73 2.05-26.75 0.91-14.02 1.95-27.52 2.31-30 0.47-3.23 1.14 2.11 2.39 19zm-166.15 119h55v61l62.5 0.5 0.5 54.5-62.5 0.5-0.5 61.5h-55v-62h-62v-55h62zm280.79 124.03c0.16-0.02-3.89 4.81-9 10.72-5.11 5.91-14.91 16.39-21.79 23.28-6.87 6.89-17.67 17.05-24 22.58-6.33 5.53-16 13.63-21.5 17.99-5.5 4.35-15.4 11.79-22 16.52-6.6 4.73-17.4 12.21-24 16.61-6.6 4.41-20.78 13.27-31.5 19.71-10.72 6.43-33 18.4-49.5 26.6-16.5 8.2-38.33 18.23-48.5 22.3-10.17 4.07-26.37 10.11-36 13.42-9.62 3.31-24.25 8.07-32.5 10.57-8.25 2.49-21.97 6.35-30.5 8.56-8.52 2.21-24.5 5.82-35.5 8.02-11 2.2-27.42 5.14-36.5 6.54-9.08 1.39-24.6 3.41-34.5 4.49-9.9 1.07-27 2.49-38 3.14-12.76 0.76-32.86 0.99-55.5 0.62-19.52-0.32-43.37-1.26-53-2.09-9.62-0.84-21.55-1.97-26.5-2.53-4.95-0.56-18-2.27-49-6.58l47-0.63c28.55-0.38 55.24-1.28 68-2.28 11.55-0.91 27.08-2.32 34.5-3.14 7.42-0.81 22.95-2.83 34.5-4.48 11.55-1.65 31.13-4.82 43.5-7.04 12.38-2.22 30.6-5.84 40.5-8.04 9.9-2.2 26.1-6.03 36-8.51 9.9-2.47 24.3-6.31 32-8.51 7.7-2.2 23.45-6.94 35-10.53 11.55-3.59 31.58-10.35 44.5-15.04 12.92-4.68 28-10.3 33.5-12.49 5.5-2.19 18.1-7.42 28-11.63 9.9-4.2 29.92-13.54 44.5-20.76 14.58-7.21 31.67-16.05 38-19.64 6.33-3.6 16.9-9.8 23.5-13.78 6.6-3.98 18.3-11.51 26-16.74 7.7-5.24 18.95-13.38 25-18.1 6.05-4.72 15.5-12.43 21-17.12 5.5-4.7 13.15-11.56 17-15.26 3.85-3.69 7.13-6.73 7.29-6.75zm11.79 35.97c0.19 0 0.06 0.56-0.28 1.25-0.35 0.69-4.89 7.77-10.1 15.75-5.22 7.98-13.2 19.45-17.75 25.5-4.54 6.05-13.42 16.85-19.73 24-6.31 7.15-16.81 18.19-23.34 24.54-6.54 6.35-17.28 16.18-23.88 21.86-6.6 5.68-17.85 14.71-25 20.08-7.15 5.37-17.95 13.06-24 17.1-6.05 4.03-17.3 11.1-25 15.7-7.7 4.59-23.67 13.23-35.5 19.18-11.83 5.96-27.35 13.33-34.5 16.37-7.15 3.05-21.1 8.53-31 12.18-9.9 3.66-25.2 8.83-34 11.49-8.8 2.66-25.22 7.11-36.5 9.89-11.27 2.78-25.45 5.93-42.5 8.94l13 0.09c7.15 0.04 19.08-0.38 26.5-0.94 7.42-0.57 19.58-1.72 27-2.56 7.42-0.84 21.6-2.87 31.5-4.51 9.9-1.64 25.2-4.58 34-6.54 8.8-1.96 23.65-5.74 33-8.39 9.35-2.66 21.28-6.4 26.5-8.31 5.23-1.92 11.3-4.22 13.5-5.12 2.2-0.9 4.1-1.5 4.22-1.34 0.12 0.16-7.3 3.83-16.5 8.16-9.2 4.33-23.92 10.7-32.72 14.15-8.8 3.45-23.65 8.74-33 11.75-9.35 3.02-26 7.75-37 10.53-11 2.78-25.85 6.2-33 7.6-7.15 1.4-18.4 3.46-25 4.56-6.6 1.11-19.42 2.92-28.5 4.02-9.08 1.1-25.5 2.68-36.5 3.5-11.05 0.83-32.75 1.51-48.5 1.51-15.78 0.01-37.43-0.66-48.5-1.49-11-0.82-27.2-2.4-36-3.52-8.8-1.11-25-3.64-36-5.61-11-1.98-28.77-5.8-39.5-8.51-10.72-2.7-28.05-7.77-38.5-11.27-10.45-3.5-23.95-8.46-30-11.02-6.05-2.57-18.42-8.33-27.5-12.8-9.07-4.48-16.05-8.31-15.5-8.51 0.55-0.2 5.16 0.34 10.25 1.19 5.09 0.85 18.14 2.87 29 4.49 10.86 1.61 25.83 3.65 33.25 4.52 7.42 0.87 21.38 2.29 31 3.15 10.5 0.93 34.3 1.78 59.5 2.11 26.98 0.35 48.98 0.13 61.5-0.62 10.73-0.65 27.15-1.85 36.5-2.67 9.35-0.83 24.42-2.41 33.5-3.52 9.08-1.11 24.6-3.37 34.5-5.03 9.9-1.65 24.3-4.34 32-5.98 7.7-1.63 21.42-4.77 30.5-6.97 9.08-2.2 24.83-6.43 35-9.41 10.17-2.98 24.35-7.43 31.5-9.88 7.15-2.46 20.88-7.49 30.5-11.2 9.63-3.7 24.03-9.63 32-13.18 7.98-3.54 21.92-10.2 31-14.79 9.08-4.6 23.7-12.48 32.5-17.52 8.8-5.04 23.88-14.35 33.5-20.68 9.63-6.34 23.35-15.89 30.5-21.22 7.15-5.34 17.95-13.77 24-18.75 6.05-4.97 16.66-14.39 23.57-20.92 6.92-6.53 16.6-16.15 21.51-21.38 4.92-5.23 11.12-12.09 13.79-15.25 2.67-3.16 5.01-5.75 5.21-5.75zm-931.91 24.5c0.18 0.27-0.96 2.19-2.55 4.25-1.58 2.06-6.25 8.92-10.37 15.25-4.12 6.33-10.1 16.67-13.28 23-3.18 6.33-7.51 16.34-9.63 22.25-2.11 5.91-4.81 15.36-5.99 21-1.6 7.67-2.14 13.77-2.14 24.25 0.01 9.47 0.56 16.59 1.73 22 0.95 4.4 2.91 11.6 4.35 16 1.45 4.4 4.82 12.27 7.48 17.5 2.67 5.23 7.41 13.08 10.54 17.45 3.13 4.37 10.42 12.87 16.19 18.88 5.78 6.02 14.1 13.74 18.5 17.17 4.4 3.43 12.05 8.9 17 12.15 4.95 3.24 13.95 8.44 20 11.55 6.05 3.1 17.3 8.13 25 11.17 7.7 3.05 21.09 7.58 29.75 10.08 8.66 2.5 16.65 4.55 17.75 4.55 1.1 0 2.23 0.45 2.5 1 0.32 0.63-1.42 0.81-4.75 0.49-2.89-0.29-12-1.22-20.25-2.07-8.25-0.86-19.95-2.45-26-3.54-6.05-1.09-16.17-3.29-22.5-4.89-6.32-1.6-14.87-4.01-19-5.36-4.12-1.35-10.99-3.84-15.25-5.54-4.26-1.7-11.46-4.95-16-7.23-4.54-2.28-11.17-5.96-14.75-8.18-3.57-2.23-10.1-6.83-14.5-10.23-4.4-3.4-11.38-9.73-15.51-14.07-4.14-4.33-9.6-11.03-12.14-14.88-2.54-3.85-5.96-9.7-7.59-13-1.64-3.3-4.14-9.6-5.56-14-1.41-4.4-3.14-10.7-3.84-14-0.7-3.3-1.28-12.75-1.29-21-0.02-10.91 0.48-17.32 1.82-23.5 1.01-4.67 3.17-12.33 4.8-17 1.63-4.67 5.33-13.23 8.23-19 2.9-5.77 7-13.2 9.11-16.5 2.11-3.3 6.33-9.37 9.38-13.5 3.06-4.12 8.25-10.65 11.54-14.5 3.3-3.85 10.69-11.84 16.44-17.75 5.74-5.92 10.59-10.53 10.78-10.25zm7.95 35.5c0.3 0 0.26 4.61-0.09 10.25-0.43 6.96-0.14 14.02 0.92 22 0.89 6.76 2.98 16.1 4.92 22 1.85 5.64 5.45 14.41 8 19.5 2.55 5.09 6.58 12.29 8.97 16 2.39 3.71 7.19 10.35 10.68 14.75 3.48 4.4 10.86 12.52 16.4 18.04 5.55 5.52 14.58 13.62 20.09 18 5.5 4.38 14.5 10.94 20 14.58 5.49 3.64 14.94 9.47 20.99 12.94 6.05 3.48 17.3 9.33 25 13 7.7 3.68 19.85 9.05 27 11.94 7.15 2.89 18.63 7.26 25.5 9.7 6.88 2.45 20.83 6.84 31 9.76 10.18 2.92 24.58 6.69 32 8.38 7.43 1.69 19.8 4.24 27.5 5.65 7.7 1.42 18.5 3.26 24 4.09 5.5 0.82 17.88 2.36 27.5 3.4 9.63 1.05 22.68 2.23 29 2.62 7.43 0.46 10.79 0.99 9.5 1.51-1.1 0.45-9.2 1.93-18 3.31-8.8 1.37-19.6 2.96-24 3.53-4.4 0.57-16.44 1.71-26.75 2.54-10.31 0.83-25.61 1.51-34 1.5-8.39 0-22.9-0.68-32.25-1.51-9.35-0.83-21.5-2.21-27-3.08-5.5-0.87-15.17-2.68-21.5-4.03-6.32-1.34-16.45-3.83-22.5-5.53-6.05-1.7-16.17-4.87-22.5-7.04-6.32-2.17-16.9-6.21-23.5-8.97-6.6-2.75-17.85-8.01-25-11.67-7.15-3.66-19.08-10.7-26.51-15.66-7.44-4.95-17.79-12.44-23-16.64-5.22-4.2-13.8-12.08-19.06-17.5-5.26-5.42-12.37-13.69-15.79-18.36-3.43-4.67-8.41-12.77-11.08-18-2.66-5.23-6.19-13.77-7.84-19-1.65-5.23-3.56-13.33-4.24-18-0.81-5.49-1.05-13.47-0.67-22.5 0.32-7.7 1.31-17.37 2.2-21.5 0.89-4.12 3.35-12.67 5.47-19 2.11-6.33 4.8-13.64 5.97-16.25 1.17-2.61 2.37-4.75 2.67-4.75zm129.83 38c0.17 0 0.34 5.96 0.39 13.25 0.05 7.29 0.54 16.4 1.08 20.25 0.55 3.85 1.71 10.38 2.57 14.5 0.86 4.13 2.95 11.77 4.65 17 1.69 5.23 4.83 13.21 6.97 17.75 2.14 4.54 3.67 8.25 3.39 8.25-0.27 0-3.28-4.16-6.68-9.25-3.4-5.09-7.44-11.95-8.98-15.25-1.54-3.3-3.71-9.6-4.84-14-1.12-4.4-2.31-11.6-2.63-16-0.33-4.4-0.07-12.27 0.57-17.5 0.65-5.23 1.63-11.64 2.19-14.25 0.55-2.61 1.15-4.75 1.32-4.75z"/>
	</g>
</svg>